<svg width="99" height="104" viewBox="0 0 99 104" fill="none" xmlns="http://www.w3.org/2000/svg">
<g filter="url(#filter0_d_203_82)">
<path d="M77.7004 60.4954C68.3207 59.4014 64.0568 69.7484 55.3374 69.7484C46.4664 69.7484 42.2473 59.5131 32.6766 60.195C29.4663 60.4238 27.5168 62.0243 24.6386 62.0243C14.3448 62.0243 6 53.6258 6 43.2657C6 32.9055 14.3448 24.507 24.6386 24.507C34.9323 24.507 25.68 24.5731 26.3483 24.5849C39.8216 24.8233 42.4396 5.74835 55.3374 5.74835C72.2963 5.74835 76.0666 22.8377 87.0829 35.946C91.1575 40.7944 97 42.595 97 48.7829C97 56.0959 91.1096 62.0243 83.8434 62.0243C81.6246 62.0243 80.1552 60.7817 77.7004 60.4954Z" fill="url(#paint0_linear_203_82)" shape-rendering="crispEdges"/>
</g>
<ellipse cx="0.550577" cy="2.94847" rx="0.550577" ry="2.94847" transform="matrix(0.496953 -0.867778 0.793596 0.608445 63.8323 77.1625)" fill="#D9D9D9"/>
<ellipse cx="0.550577" cy="2.94847" rx="0.550577" ry="2.94847" transform="matrix(0.496953 -0.867778 0.793596 0.608445 70.9897 82.65)" fill="#D9D9D9"/>
<ellipse cx="0.524346" cy="3.09821" rx="0.524346" ry="3.09821" transform="matrix(-0.758283 -0.651926 0.54035 -0.84144 66.1875 88.1583)" fill="#D9D9D9"/>
<ellipse cx="0.524346" cy="3.09821" rx="0.524346" ry="3.09821" transform="matrix(-0.758283 -0.651926 0.54035 -0.84144 71.3083 80.1841)" fill="#D9D9D9"/>
<ellipse cx="0.524346" cy="3.09821" rx="0.524346" ry="3.09821" transform="matrix(-0.758283 -0.651926 0.54035 -0.84144 66.1875 88.1583)" fill="#D9D9D9"/>
<ellipse cx="0.524346" cy="3.09821" rx="0.524346" ry="3.09821" transform="matrix(-0.758283 -0.651926 0.54035 -0.84144 71.3083 80.1841)" fill="#D9D9D9"/>
<ellipse cx="0.572358" cy="2.81214" rx="0.572358" ry="2.81214" transform="matrix(-0.0903005 -0.995915 0.992713 -0.120505 63.0149 82.6495)" fill="#D9D9D9"/>
<ellipse cx="0.572358" cy="2.81214" rx="0.572358" ry="2.81214" transform="matrix(-0.0903005 -0.995915 0.992713 -0.120505 71.554 81.613)" fill="#D9D9D9"/>
<ellipse cx="0.495562" cy="3.24678" rx="0.495562" ry="3.24678" transform="matrix(-0.998281 0.0586081 -0.04381 -0.99904 70.8789 89.3979)" fill="#D9D9D9"/>
<ellipse cx="0.495562" cy="3.24678" rx="0.495562" ry="3.24678" transform="matrix(-0.998281 0.0586081 -0.04381 -0.99904 70.4438 79.4761)" fill="#D9D9D9"/>
<ellipse cx="0.495562" cy="3.24678" rx="0.495562" ry="3.24678" transform="matrix(-0.998281 0.0586081 -0.04381 -0.99904 70.8789 89.3979)" fill="#D9D9D9"/>
<ellipse cx="0.495562" cy="3.24678" rx="0.495562" ry="3.24678" transform="matrix(-0.998281 0.0586081 -0.04381 -0.99904 70.4438 79.4761)" fill="#D9D9D9"/>
<ellipse cx="0.610754" cy="3.45746" rx="0.610754" ry="3.45746" transform="matrix(0.55137 -0.834261 0.832946 0.553354 39.9707 78.5342)" fill="#D9D9D9"/>
<ellipse cx="0.610754" cy="3.45746" rx="0.610754" ry="3.45746" transform="matrix(0.55137 -0.834261 0.832946 0.553354 48.7795 84.3863)" fill="#D9D9D9"/>
<ellipse cx="0.610219" cy="3.46049" rx="0.610219" ry="3.46049" transform="matrix(-0.801937 -0.597409 0.595423 -0.803412 42.8694 90.2607)" fill="#D9D9D9"/>
<ellipse cx="0.610219" cy="3.46049" rx="0.610219" ry="3.46049" transform="matrix(-0.801937 -0.597409 0.595423 -0.803412 49.1721 81.7565)" fill="#D9D9D9"/>
<ellipse cx="0.610219" cy="3.46049" rx="0.610219" ry="3.46049" transform="matrix(-0.801937 -0.597409 0.595423 -0.803412 42.8694 90.2607)" fill="#D9D9D9"/>
<ellipse cx="0.610219" cy="3.46049" rx="0.610219" ry="3.46049" transform="matrix(-0.801937 -0.597409 0.595423 -0.803412 49.1721 81.7565)" fill="#D9D9D9"/>
<ellipse cx="0.611218" cy="3.45482" rx="0.611218" ry="3.45482" transform="matrix(-0.104073 -0.99457 0.994514 -0.104607 38.9646 84.3859)" fill="#D9D9D9"/>
<ellipse cx="0.611218" cy="3.45482" rx="0.611218" ry="3.45482" transform="matrix(-0.104073 -0.99457 0.994514 -0.104607 49.4741 83.2805)" fill="#D9D9D9"/>
<ellipse cx="0.609662" cy="3.46364" rx="0.609662" ry="3.46364" transform="matrix(-0.998709 0.0508053 -0.050544 -0.998722 48.6436 91.5826)" fill="#D9D9D9"/>
<ellipse cx="0.609662" cy="3.46364" rx="0.609662" ry="3.46364" transform="matrix(-0.998709 0.0508053 -0.050544 -0.998722 48.1079 81.0016)" fill="#D9D9D9"/>
<ellipse cx="0.609662" cy="3.46364" rx="0.609662" ry="3.46364" transform="matrix(-0.998709 0.0508053 -0.050544 -0.998722 48.6436 91.5826)" fill="#D9D9D9"/>
<ellipse cx="0.609662" cy="3.46364" rx="0.609662" ry="3.46364" transform="matrix(-0.998709 0.0508053 -0.050544 -0.998722 48.1079 81.0016)" fill="#D9D9D9"/>
<ellipse cx="0.550577" cy="2.94847" rx="0.550577" ry="2.94847" transform="matrix(0.496953 -0.867778 0.793596 0.608445 53.9836 91.3882)" fill="#D9D9D9"/>
<ellipse cx="0.550577" cy="2.94847" rx="0.550577" ry="2.94847" transform="matrix(0.496953 -0.867778 0.793596 0.608445 61.1411 96.8757)" fill="#D9D9D9"/>
<ellipse cx="0.524346" cy="3.09821" rx="0.524346" ry="3.09821" transform="matrix(-0.758283 -0.651926 0.54035 -0.84144 56.3389 102.384)" fill="#D9D9D9"/>
<ellipse cx="0.524346" cy="3.09821" rx="0.524346" ry="3.09821" transform="matrix(-0.758283 -0.651926 0.54035 -0.84144 61.4597 94.4098)" fill="#D9D9D9"/>
<ellipse cx="0.524346" cy="3.09821" rx="0.524346" ry="3.09821" transform="matrix(-0.758283 -0.651926 0.54035 -0.84144 56.3389 102.384)" fill="#D9D9D9"/>
<ellipse cx="0.524346" cy="3.09821" rx="0.524346" ry="3.09821" transform="matrix(-0.758283 -0.651926 0.54035 -0.84144 61.4597 94.4098)" fill="#D9D9D9"/>
<ellipse cx="0.572358" cy="2.81214" rx="0.572358" ry="2.81214" transform="matrix(-0.0903005 -0.995915 0.992713 -0.120505 53.1663 96.8752)" fill="#D9D9D9"/>
<ellipse cx="0.572358" cy="2.81214" rx="0.572358" ry="2.81214" transform="matrix(-0.0903005 -0.995915 0.992713 -0.120505 61.7053 95.8387)" fill="#D9D9D9"/>
<ellipse cx="0.495562" cy="3.24678" rx="0.495562" ry="3.24678" transform="matrix(-0.998281 0.0586081 -0.04381 -0.99904 61.0303 103.624)" fill="#D9D9D9"/>
<ellipse cx="0.495562" cy="3.24678" rx="0.495562" ry="3.24678" transform="matrix(-0.998281 0.0586081 -0.04381 -0.99904 60.5952 93.7018)" fill="#D9D9D9"/>
<ellipse cx="0.495562" cy="3.24678" rx="0.495562" ry="3.24678" transform="matrix(-0.998281 0.0586081 -0.04381 -0.99904 61.0303 103.624)" fill="#D9D9D9"/>
<ellipse cx="0.495562" cy="3.24678" rx="0.495562" ry="3.24678" transform="matrix(-0.998281 0.0586081 -0.04381 -0.99904 60.5952 93.7018)" fill="#D9D9D9"/>
<ellipse cx="0.550577" cy="2.94847" rx="0.550577" ry="2.94847" transform="matrix(0.496953 -0.867778 0.793596 0.608445 51.7952 58.5596)" fill="#D9D9D9"/>
<ellipse cx="0.550577" cy="2.94847" rx="0.550577" ry="2.94847" transform="matrix(0.496953 -0.867778 0.793596 0.608445 58.9526 64.0471)" fill="#D9D9D9"/>
<ellipse cx="0.524346" cy="3.09821" rx="0.524346" ry="3.09821" transform="matrix(-0.758283 -0.651926 0.54035 -0.84144 54.1504 69.5554)" fill="#D9D9D9"/>
<ellipse cx="0.524346" cy="3.09821" rx="0.524346" ry="3.09821" transform="matrix(-0.758283 -0.651926 0.54035 -0.84144 59.2712 61.5812)" fill="#D9D9D9"/>
<ellipse cx="0.524346" cy="3.09821" rx="0.524346" ry="3.09821" transform="matrix(-0.758283 -0.651926 0.54035 -0.84144 54.1504 69.5554)" fill="#D9D9D9"/>
<ellipse cx="0.524346" cy="3.09821" rx="0.524346" ry="3.09821" transform="matrix(-0.758283 -0.651926 0.54035 -0.84144 59.2712 61.5812)" fill="#D9D9D9"/>
<ellipse cx="0.572358" cy="2.81214" rx="0.572358" ry="2.81214" transform="matrix(-0.0903005 -0.995915 0.992713 -0.120505 50.9778 64.0466)" fill="#D9D9D9"/>
<ellipse cx="0.572358" cy="2.81214" rx="0.572358" ry="2.81214" transform="matrix(-0.0903005 -0.995915 0.992713 -0.120505 59.5168 63.0101)" fill="#D9D9D9"/>
<ellipse cx="0.495562" cy="3.24678" rx="0.495562" ry="3.24678" transform="matrix(-0.998281 0.0586081 -0.04381 -0.99904 58.8418 70.795)" fill="#D9D9D9"/>
<ellipse cx="0.495562" cy="3.24678" rx="0.495562" ry="3.24678" transform="matrix(-0.998281 0.0586081 -0.04381 -0.99904 58.4067 60.8732)" fill="#D9D9D9"/>
<ellipse cx="0.495562" cy="3.24678" rx="0.495562" ry="3.24678" transform="matrix(-0.998281 0.0586081 -0.04381 -0.99904 58.8418 70.795)" fill="#D9D9D9"/>
<ellipse cx="0.495562" cy="3.24678" rx="0.495562" ry="3.24678" transform="matrix(-0.998281 0.0586081 -0.04381 -0.99904 58.4067 60.8732)" fill="#D9D9D9"/>
<defs>
<filter id="filter0_d_203_82" x="0" y="0.748352" width="99" height="72" filterUnits="userSpaceOnUse" color-interpolation-filters="sRGB">
<feFlood flood-opacity="0" result="BackgroundImageFix"/>
<feColorMatrix in="SourceAlpha" type="matrix" values="0 0 0 0 0 0 0 0 0 0 0 0 0 0 0 0 0 0 127 0" result="hardAlpha"/>
<feOffset dx="-2" dy="-1"/>
<feGaussianBlur stdDeviation="2"/>
<feComposite in2="hardAlpha" operator="out"/>
<feColorMatrix type="matrix" values="0 0 0 0 0 0 0 0 0 0 0 0 0 0 0 0 0 0 0.25 0"/>
<feBlend mode="normal" in2="BackgroundImageFix" result="effect1_dropShadow_203_82"/>
<feBlend mode="normal" in="SourceGraphic" in2="effect1_dropShadow_203_82" result="shape"/>
</filter>
<linearGradient id="paint0_linear_203_82" x1="51.5" y1="5.74835" x2="51.5" y2="69.7484" gradientUnits="userSpaceOnUse">
<stop stop-color="#0038FF"/>
<stop offset="0.9999" stop-color="white" stop-opacity="0"/>
<stop offset="1" stop-color="#D9D9D9" stop-opacity="0"/>
</linearGradient>
</defs>
</svg>
